{"title":"Monsters University 2013 HDRip XviD - TODE","uid":9018675,"size":738041262,"categoryP":"video","categoryS":"movies","magnet":"?xt=urn:btih:540d7f4f8fa8231db82e6712a7e399b9fc403b74&amp;dn=Monsters+University+2013+HDRip+XviD+-+TODE&amp;tr=udp%3A%2F%2Ftracker.openbittorrent.com%3A80&amp;tr=udp%3A%2F%2Fopen.demonii.com%3A1337&amp;tr=udp%3A%2F%2Ftracker.coppersurfer.tk%3A6969&amp;tr=udp%3A%2F%2Fexodus.desync.com%3A6969","seeders":5,"leechers":0,"uploader":"xxxlavalxxx","files":-1,"time":1381248060,"description":" &lt;a href=&quot;\nhttp://www.imdb.com/title/tt1453405/&quot; rel=&quot;nofollow&quot; target=&quot;_NEW&quot;&gt;\nhttp://www.imdb.com/title/tt1453405/&lt;/a&gt;\n\n\n\nA look at the relationship between Mike and Sulley during their days at Monsters University -- when they weren't necessarily the best of friends. \n\n\n\nDirector:\n Dan Scanlon \n\nWriters:\n Dan Scanlon (story), Daniel Gerson (story)\n\nStars:\n Billy Crystal, John Goodman, Steve Buscemi \n\nGenres:\n  Animation |  Adventure |  Comedy |  Family |  Fantasy \n\nCountry:\n USA \n\nLanguage:\n English \n\n\n\nFormat                                   : AVI\nFormat/Info                              : Audio Video Interleave\nFile size                                : 704 MiB\nDuration                                 : 1h 43mn\nOverall bit rate                         : 948 Kbps\nWriting application                      : Lavf51.12.1\n\nVideo\nID                                       : 0\nFormat                                   : AVC\nFormat/Info                              : Advanced Video Codec\nFormat profile                           : &lt;a class=&quot;__cf_email__&quot; href=&quot;/cdn-cgi/l/email-protection&quot; data-cfemail=&quot;06446775636a6f6863464a352836&quot;&gt;[email&amp;#160;protected]&lt;/a&gt;&lt;script cf-hash='f9e31' type=&quot;text/javascript&quot;&gt;\n/* &lt;![CDATA[ */!function(){try{var t=&quot;currentScript&quot;in document?document.currentScript:function(){for(var t=document.getElementsByTagName(&quot;script&quot;),e=t.length;e--;)if(t[e].getAttribute(&quot;cf-hash&quot;))return t[e]}();if(t&amp;&amp;t.previousSibling){var e,r,n,i,c=t.previousSibling,a=c.getAttribute(&quot;data-cfemail&quot;);if(a){for(e=&quot;&quot;,r=parseInt(a.substr(0,2),16),n=2;a.length-n;n+=2)i=parseInt(a.substr(n,2),16)^r,e+=String.fromCharCode(i);e=document.createTextNode(e),c.parentNode.replaceChild(e,c)}}}catch(u){}}();/* ]]&gt; */&lt;/script&gt;\nFormat settings, CABAC                   : No\nFormat settings, ReFrames                : 1 frame\nFormat settings, GOP                     : M=1, N=12\nCodec ID                                 : H264\nDuration                                 : 1h 43mn\nBit rate                                 : 808 Kbps\nWidth                                    : 640 pixels\nHeight                                   : 352 pixels\nDisplay aspect ratio                     : 16:9\nFrame rate mode                          : Variable\nFrame rate                               : 23.976 fps\nColor space                              : YUV\nChroma subsampling                       : 4:2:0\nBit depth                                : 8 bits\nScan type                                : Progressive\nBits/(Pixel*Frame)                       : 0.150\nStream size                              : 600 MiB (85%)\n\nAudio\nID                                       : 1\nFormat                                   : MPEG Audio\nFormat version                           : Version 1\nFormat profile                           : Layer 3\nMode                                     : Joint stereo\nMode extension                           : MS Stereo\nCodec ID                                 : 55\nCodec ID/Hint                            : MP3\nDuration                                 : 1h 43mn\nBit rate mode                            : Constant\nBit rate                                 : 128 Kbps\nChannel(s)                               : 2 channels\nSampling rate                            : 44.1 KHz\nCompression mode                         : Lossy\nStream size                              : 95.0 MiB (14%)\nAlignment                                : Aligned on interleaves\nInterleave, duration                     : 26 ms (0.63 video frame)\nInterleave, preload duration             : 26 ms\nWriting library                          : LAME3.97\n\n\n\n &lt;a href=&quot;\nhttp://i.imgur.com/DjoRuT9.jpg&quot; rel=&quot;nofollow&quot; target=&quot;_NEW&quot;&gt;\nhttp://i.imgur.com/DjoRuT9.jpg&lt;/a&gt; &lt;a href=&quot;\nhttp://i.imgur.com/oR9RebU.jpg&quot; rel=&quot;nofollow&quot; target=&quot;_NEW&quot;&gt;\nhttp://i.imgur.com/oR9RebU.jpg&lt;/a&gt; &lt;a href=&quot;\nhttp://i.imgur.com/9Z50nD3.jpg&quot; rel=&quot;nofollow&quot; target=&quot;_NEW&quot;&gt;\nhttp://i.imgur.com/9Z50nD3.jpg&lt;/a&gt; &lt;a href=&quot;\nhttp://i.imgur.com/Ll0Jhgp.jpg&quot; rel=&quot;nofollow&quot; target=&quot;_NEW&quot;&gt;\nhttp://i.imgur.com/Ll0Jhgp.jpg&lt;/a&gt; &lt;a href=&quot;\nhttp://i.imgur.com/jlAq5Aw.jpg&quot; rel=&quot;nofollow&quot; target=&quot;_NEW&quot;&gt;\nhttp://i.imgur.com/jlAq5Aw.jpg&lt;/a&gt; &lt;a href=&quot;\nhttp://i.imgur.com/ipE7cpC.jpg&quot; rel=&quot;nofollow&quot; target=&quot;_NEW&quot;&gt;\nhttp://i.imgur.com/ipE7cpC.jpg&lt;/a&gt;","torrent":{"xt":"urn:btih:540d7f4f8fa8231db82e6712a7e399b9fc403b74","amp;dn":"Monsters+University+2013+HDRip+XviD+-+TODE","amp;tr":["udp%3A%2F%2Ftracker.openbittorrent.com%3A80","udp%3A%2F%2Fopen.demonii.com%3A1337","udp%3A%2F%2Ftracker.coppersurfer.tk%3A6969","udp%3A%2F%2Fexodus.desync.com%3A6969"],"infoHash":"540d7f4f8fa8231db82e6712a7e399b9fc403b74","infoHashBuffer":{"type":"Buffer","data":[84,13,127,79,143,168,35,29,184,46,103,18,167,227,153,185,252,64,59,116]},"announce":[],"urlList":[]}}